<svg xmlns="http://www.w3.org/2000/svg" xmlns:xlink="http://www.w3.org/1999/xlink" version="1.1" x="0px" y="0px" viewBox="0 0 100 100" enable-background="new 0 0 100 100" xml:space="preserve">
  <path stroke="#05a560"  stroke-linecap="round" stroke-width="1.25" stroke-linejoin="round" stroke-miterlimit="10"
    d="M35.903,13.131l1.016,0.888l0.125,1.779l2.922,1.524l27.691,0.765v1.522c0,0-0.124,0.636-0.379,1.017  c-0.254,0.381,0,0.89,0,0.89s2.031-0.255,2.796-0.89c0.29-0.241,0.357-0.3,0.335-0.3c-0.024,0-0.132,0.051-0.215,0.051  c-0.067,0-0.12-0.03-0.12-0.132c0-0.381,0-1.144,0-1.652c0-0.506,0-0.889,0-1.271c0-0.38,0.126-1.524,0.126-1.524h0.764h0.635  l2.032,1.145h1.524h1.399l1.016,6.733l0.378,2.539l0.638,2.795l2.919,6.987l2.033,3.557l0.384,0.637l0.507,0.634  c0,0,0.126,0.509,0.764,1.397c0.635,0.89,0.378,0.89,0.378,1.52c0,0.631,0,1.021,0,1.021s0,0-0.126,0.508  c-0.037,0.146-0.104,0.197-0.182,0.197c-0.194,0-0.455-0.324-0.455-0.324l-0.253-0.635c0,0-0.252-1.397-0.506-1.778  c-0.258-0.381-1.02-1.271-1.02-1.271s0,0,0,0.381c0,0.382,0.509,1.78,0.635,1.901c0.127,0.122,0.258,1.529,0.258,1.529l0.253,1.652  l1.778,2.668v1.323l1.399,3.122l1.014,1.018l0.385,2.793l1.14,1.525c0,0,0.764,2.289,0.764,2.795c0,0.508,0.504,0.762,0.504,0.762  l1.019,1.779v2.032c0,0,0,0-0.249,1.397c-0.261,1.398,0,7.623,0,7.623s-0.77,2.16-1.313,2.287c-0.548,0.125,0.169,0.635-0.215,1.525  c-0.381,0.889,0.636,1.141,0,2.156c-0.27,0.434-0.31,0.498-0.327,0.498c-0.006,0-0.008-0.012-0.021-0.012  c-0.029,0-0.116,0.054-0.416,0.404c-0.32,0.375-0.37,0.434-0.388,0.434c-0.007,0-0.007-0.014-0.025-0.014  c-0.035,0-0.133,0.051-0.472,0.342c-0.892,0.763,0.505,0.508,0,1.651c-0.511,1.144-0.511,1.271-0.511,1.271s0,0-0.888,0  c-0.376,0-0.434,0-0.434,0h0.013c0,0-0.05,0-0.343,0c-0.762,0-1.019,0.252-2.54,0.382c-1.526,0.127,0,0-0.891,0.127  c-0.298,0.043-0.536,0.056-0.786,0.056c-0.499,0-1.034-0.056-2.135-0.056c-1.651,0,0,0-0.636-0.127  c-0.635-0.13-0.509-1.778-0.509-1.778h1.019c0,0,0.381-0.635,0-0.889c-0.381-0.257-1.906-0.764-1.906-0.764l-0.635-3.176  c0,0-0.129-0.637-0.639-1.65c-0.187-0.377-0.236-0.475-0.271-0.475c-0.043,0-0.072,0.118-0.26,0.118  c-0.101,0-0.255-0.036-0.484-0.151c-0.352-0.178-0.463-0.232-0.504-0.232c-0.064,0,0.016,0.125-0.397,0.125  c-0.096,0-0.217-0.006-0.371-0.023c-1.268-0.126,0,0-1.903-0.252c-1.902-0.254,0,0-0.032-0.635  c-0.028-0.637-0.219-0.637-0.096-1.143c0.128-0.508,0.128-2.036,0-2.412c-0.123-0.383-1.522-2.034-1.522-2.034  s-0.638-0.254-1.396-0.89c-0.764-0.637-0.51-0.255-0.796-1.017c-0.285-0.765-0.478-1.145-0.094-1.649  c0.38-0.511-0.51-1.019-0.51-1.019l0.51-0.509v-1.268l-1.019,1.016l-1.142,0.761v-0.89c0,0-1.145-1.65-1.205-2.16  c-0.062-0.508-0.19-1.27-0.022-2.029c0.169-0.764-0.679-1.4-0.679-1.4s-0.506-0.255-1.142-0.635  c-0.637-0.381-0.889-1.143-0.889-1.143s0.637-0.637,0.761-1.398c0,0,1.396-1.65,1.78-2.061c0.38-0.408,0-1.623,0-1.623  s-0.258-0.635-0.637-1.144c-0.126-0.169-0.294-0.212-0.466-0.212c-0.169,0-0.337,0.043-0.467,0.043  c-0.126,0-0.211-0.043-0.211-0.211c0-0.102,0-0.144,0-0.144v0.651c0,0,0,0.889,0,1.904c0,0.376,0,0.475-0.025,0.475  c-0.028,0-0.084-0.118-0.204-0.118c-0.068,0-0.156,0.037-0.27,0.153c-0.167,0.168-0.357,0.225-0.539,0.225  c-0.363,0-0.688-0.225-0.688-0.225l-0.94-1.652l0.124-1.016l0.816-1.218c0,0-0.05-1.323,0-1.704c0.056-0.381,0-1.906,0-1.906  s1.218-1.906,1.225-2.286c0.01-0.382-0.061-1.276-0.061-1.276s0.182-1.139-0.072-1.52c-0.255-0.382,0.254-0.763,0-1.397  c-0.255-0.634,0-1.396,0-1.396s0,0-0.507-0.509c-0.509-0.508-1.271-1.524-2.543-2.159c-0.422-0.212-0.565-0.282-0.588-0.282  c-0.045,0,0.375,0.282-0.045,0.282c-0.226,0-0.371,0.048-0.515,0.048c-0.263,0-0.524-0.16-1.266-1.064c-1.144-1.397,0-2.159,0-2.159  s-1.144-0.254-1.607-0.636c-0.467-0.38-0.679-0.635-1.439-1.397c-0.765-0.761,0,0-0.636-1.016c-0.229-0.364-0.292-0.468-0.311-0.468  c-0.024,0,0.031,0.177-0.095,0.177c-0.048,0-0.121-0.024-0.229-0.09c-0.638-0.381,0.38-1.143,0-1.905  c-0.137-0.271-0.177-0.35-0.194-0.35c-0.022,0-0.003,0.149-0.136,0.149c-0.043,0-0.101-0.016-0.179-0.055  c-0.51-0.255-1.143-1.143-1.143-1.143s0,0-0.509-0.509c-0.509-0.508-1.525-0.636-1.78-1.229c-0.105-0.251-0.348-0.343-0.622-0.343  c-0.376,0-0.81,0.173-1.028,0.343c-0.096,0.074-0.219,0.101-0.355,0.101c-0.317,0-0.721-0.139-1.111-0.139  c-0.105,0-0.211,0.011-0.314,0.038c-0.633,0.167-1.14,0.468-2.284,0.722s0,0.889,0,0.889s0,0-0.888,0.256  c-0.893,0.253-0.383,0.507-1.781,1.396c-1.395,0.889-0.379,0.637-1.395,1.145c-0.328,0.162-0.443,0.221-0.494,0.221  c-0.105,0,0.086-0.262-0.778-0.349c-0.225-0.023-0.386-0.034-0.51-0.034c-0.567,0-0.292,0.229-1.647,0.542  c-1.654,0.382,0,0-0.893,0.509c-0.414,0.236-0.607,0.336-0.781,0.336c-0.199,0-0.373-0.132-0.824-0.336c0,0-0.172-1.017-0.172-1.525  c0-0.508,0.381-1.396,0-2.031c-0.381-0.637,0,0-1.273-0.763c-1.268-0.762-0.249-0.636-1.521-1.271  c-0.482-0.241-0.598-0.299-0.598-0.299l0.098,0.051c0,0-0.058-0.03-0.262-0.133c-0.764-0.381-0.507-0.889-1.527-1.271  c-1.016-0.382-0.759,0-1.777-0.619c-0.363-0.222-0.531-0.271-0.67-0.271c-0.104,0-0.189,0.029-0.33,0.029  c-0.189,0-0.475-0.051-1.033-0.283c-0.578-0.24-0.717-0.299-0.729-0.299c-0.014,0,0.083,0.049,0.043,0.049  c-0.033,0-0.149-0.029-0.457-0.132c-1.145-0.381,0-0.626,0-0.626h0.764c0,0-0.764-0.771-1.273-0.896  c-0.092-0.024-0.176-0.034-0.262-0.034c-0.375,0-0.756,0.207-1.893,0.414c-1.398,0.255,0,0-1.145,0.636  c-0.436,0.241-0.541,0.299-0.572,0.299c-0.027,0,0.003-0.05-0.107-0.05c-0.084,0-0.25,0.029-0.593,0.132  c-0.36,0.108-0.517,0.155-0.585,0.155c-0.18,0,0.189-0.297-0.812-0.655c-0.466-0.166-0.792-0.223-1.016-0.223  c-0.358,0-0.47,0.141-0.499,0.198l0.625-1.509c0,0-3.05,0.763-3.686,1.852c-0.633,1.087,0,1.071-1.142,1.198  c-0.104,0.011-0.198,0.017-0.288,0.017c-0.898,0-1.111-0.525-1.111-0.525s0.512-1.145,0.639-1.904l-0.639-3.431l-1.779-1.906v-1.651  H35.903 M15.204,20.991l-0.008,0.024C15.196,21.016,15.198,21.007,15.204,20.991 M35.903,11.871H7.823  c-0.695,0-1.26,0.564-1.26,1.26v1.651c0,0.319,0.123,0.627,0.34,0.859l1.527,1.638l0.527,2.826  c-0.124,0.497-0.403,1.179-0.507,1.406c-0.136,0.312-0.144,0.666-0.018,0.983c0.247,0.606,0.991,1.313,2.28,1.313  c0.132,0,0.275-0.007,0.43-0.023c0.746-0.084,1.596-0.179,1.888-1.335c0.03-0.119,0.06-0.241,0.204-0.482  c0.093-0.134,0.385-0.316,0.778-0.507c0.134,0.344,0.411,0.626,0.782,0.75c0.133,0.043,0.268,0.063,0.4,0.063  c0.239,0,0.477-0.069,0.678-0.197c0.094,0.021,0.232,0.058,0.422,0.124c0.021,0.01,0.045,0.018,0.064,0.026  c0.225,0.43,0.656,0.703,1.17,0.703c0.252,0,0.443-0.057,0.947-0.208c0.057-0.018,0.105-0.031,0.149-0.044  c0.063,0.01,0.126,0.016,0.188,0.016c0.358,0,0.518-0.089,1.185-0.459c0.247-0.138,0.492-0.291,0.69-0.484  c0.021-0.005,0.043-0.009,0.066-0.013c0.27-0.049,0.498-0.098,0.697-0.144c0.089,0.444,0.422,0.937,1.344,1.242  c0.305,0.103,0.492,0.158,0.656,0.183c0.098,0.041,0.227,0.096,0.4,0.167c0.63,0.263,1.1,0.38,1.518,0.38  c0.085,0,0.161-0.005,0.229-0.012c0.036,0.019,0.074,0.042,0.119,0.07c0.703,0.427,1.021,0.524,1.477,0.584  c0.119,0.016,0.223,0.029,0.512,0.137c0.194,0.074,0.197,0.078,0.318,0.247c0.168,0.246,0.458,0.657,1.086,0.973  c0.065,0.033,0.126,0.062,0.179,0.089l0.567,0.282c0.131,0.065,0.217,0.113,0.271,0.146c0.223,0.411,0.555,0.709,1.184,1.087  c0.345,0.208,0.617,0.343,0.836,0.431c-0.016,0.138-0.058,0.366-0.08,0.505c-0.049,0.251-0.096,0.51-0.096,0.778  c0,0.585,0.156,1.547,0.188,1.734c0.07,0.414,0.343,0.766,0.724,0.939c0.126,0.056,0.225,0.105,0.307,0.146  c0.285,0.142,0.605,0.3,1.037,0.3c0.526,0,0.935-0.231,1.406-0.5c0.201-0.116,0.359-0.237,0.488-0.361  c0.021-0.005,0.041-0.01,0.061-0.014c0.781-0.181,1.16-0.354,1.438-0.508c0.088,0.004,0.189,0.013,0.314,0.025  c0.003,0,0.006,0,0.01,0.002C38.212,30.901,38.552,31,38.839,31c0.348,0,0.555-0.103,1.054-0.353  c0.542-0.271,0.874-0.497,1.087-0.916c0.064-0.052,0.191-0.145,0.426-0.294c0.818-0.521,1.154-0.91,1.406-1.234l0,0  c0.012-0.005,0.027-0.009,0.04-0.013l0.893-0.255c0.489-0.142,0.845-0.562,0.905-1.068c0.002-0.022,0.004-0.045,0.004-0.068  c0.296-0.093,0.533-0.183,0.747-0.262c0.209-0.08,0.397-0.152,0.603-0.206c0.083,0.004,0.231,0.031,0.375,0.058  c0.217,0.04,0.464,0.085,0.729,0.085c0.434,0,0.814-0.122,1.127-0.363c0.005-0.004,0.012-0.008,0.02-0.012  c0.363,0.444,0.87,0.685,1.264,0.871c0.166,0.079,0.416,0.197,0.483,0.264l0.441,0.44c0.222,0.301,0.733,0.938,1.304,1.312  c-0.432,1.269,0.115,1.922,0.66,2.249c0.103,0.062,0.204,0.112,0.302,0.151c0.097,0.428,0.432,0.764,0.724,1.055  c0.211,0.212,0.381,0.385,0.524,0.531c0.388,0.396,0.623,0.635,1.011,0.951c0.184,0.152,0.41,0.285,0.648,0.397  c-0.054,0.541,0.056,1.335,0.783,2.22c0.73,0.894,1.318,1.526,2.238,1.526c0.121,0,0.247-0.014,0.38-0.033  c0.039-0.005,0.081-0.015,0.135-0.015c0.098,0,0.193-0.008,0.279-0.021c0.703,0.402,1.215,0.961,1.633,1.418  c0.137,0.147,0.261,0.28,0.368,0.392l0.043,0.041c-0.035,0.396-0.018,0.885,0.164,1.371c-0.008,0.025-0.019,0.052-0.025,0.077  c-0.075,0.267-0.249,0.865,0.091,1.486c0.016,0.163,0,0.504-0.043,0.763c-0.013,0.097-0.018,0.196-0.01,0.294  c0.022,0.285,0.05,0.732,0.056,1.004c-0.149,0.336-0.631,1.165-1.026,1.781c-0.136,0.215-0.206,0.467-0.196,0.722  c0.022,0.659,0.033,1.497,0.011,1.694c-0.046,0.33-0.039,1.01-0.026,1.508l-0.59,0.88c-0.107,0.164-0.178,0.352-0.201,0.547  l-0.126,1.017c-0.033,0.27,0.02,0.542,0.153,0.777l0.943,1.652c0.093,0.162,0.222,0.303,0.376,0.41  c0.15,0.105,0.699,0.452,1.406,0.452c0.022,0,0.045-0.001,0.064-0.001c-0.141,0.171-0.234,0.378-0.271,0.598  c-0.045,0.275-0.33,0.632-0.405,0.709c-0.339,0.336-0.457,0.834-0.306,1.287c0.065,0.201,0.448,1.237,1.439,1.829  c0.471,0.283,0.877,0.501,1.081,0.606c0.05,0.052,0.105,0.117,0.134,0.166c-0.175,0.864-0.068,1.673,0.003,2.215l0.019,0.151  c0.021,0.188,0.092,0.743,1.195,2.394v0.501c0,0.465,0.255,0.892,0.666,1.111c0.184,0.1,0.391,0.148,0.595,0.148  c0.244,0,0.488-0.07,0.697-0.212l0.072-0.046c-0.218,0.726,0.031,1.385,0.241,1.94l0.062,0.164c0.048,0.129,0.076,0.218,0.1,0.285  c0.161,0.471,0.312,0.682,0.71,0.976c0.076,0.057,0.189,0.142,0.36,0.286c0.575,0.479,1.095,0.781,1.414,0.942  c0.462,0.555,0.961,1.188,1.122,1.446c0.048,0.336,0.035,1.389-0.033,1.674c-0.081,0.34-0.091,0.602-0.065,0.822  c-0.679,0.343-0.695,1.014-0.691,1.166c0.039,1.089,0.964,1.211,1.941,1.342c0.89,0.119,1.036,0.146,1.112,0.162  c0.093,0.018,0.09,0.021,0.834,0.097c0.204,0.021,0.365,0.028,0.494,0.028c0.075,0,0.198,0,0.348-0.021  c0.206,0.103,0.396,0.176,0.579,0.221c0.303,0.66,0.396,1.062,0.396,1.067l0.633,3.163c0.087,0.443,0.407,0.805,0.836,0.947  c0.033,0.012,0.065,0.021,0.099,0.033c-0.037,0.104-0.061,0.213-0.07,0.328c-0.076,0.98,0.075,1.779,0.418,2.326  c0.204,0.936,1.183,0.936,1.984,0.936c0.635,0,1.073,0.02,1.424,0.034c0.27,0.011,0.494,0.021,0.711,0.021  c0.333,0,0.63-0.021,0.963-0.069c0.146-0.021,0.275-0.049,0.391-0.084c0.104-0.008,0.242-0.02,0.426-0.034  c0.897-0.075,1.414-0.194,1.792-0.28c0.306-0.07,0.436-0.098,0.646-0.098h0.343h0.421h0.888c0.6,0,1.104-0.422,1.227-0.984  c0.028-0.074,0.126-0.34,0.434-1.033c0.242-0.547,0.288-1.053,0.142-1.516c0.169-0.143,0.338-0.34,0.552-0.59  c0.033-0.039,0.063-0.072,0.089-0.101c0.31-0.18,0.519-0.514,0.786-0.94c0.696-1.113,0.324-1.965,0.15-2.373  c-0.007-0.016-0.015-0.033-0.022-0.051c0.182-0.471,0.2-0.891,0.169-1.22c0.383-0.411,0.848-1.164,1.349-2.572  c0.054-0.152,0.076-0.313,0.07-0.473c-0.098-2.354-0.188-6.428-0.021-7.345l0.253-1.403c0.016-0.073,0.02-0.147,0.02-0.223v-2.032  c0-0.219-0.058-0.436-0.165-0.625l-1.02-1.779c-0.087-0.158-0.211-0.295-0.357-0.4c-0.075-0.556-0.346-1.539-0.809-2.93  c-0.044-0.127-0.106-0.247-0.187-0.354l-0.945-1.265l-0.341-2.473c-0.035-0.272-0.163-0.524-0.355-0.719l-0.852-0.854l-1.192-2.666  v-1.053c0-0.248-0.075-0.492-0.214-0.699l-1.458-2.189c0.545-0.107,0.974-0.523,1.125-1.124l0.128-0.511  c0.023-0.099,0.035-0.201,0.035-0.305v-1.021c0-0.088,0.013-0.153,0.021-0.211c0.102-0.732-0.056-1.229-0.635-2.04  c-0.457-0.639-0.572-1.001-0.572-1.005c-0.046-0.177-0.116-0.306-0.232-0.448l-0.453-0.567l-0.341-0.565l-1.979-3.465l-2.85-6.815  l-0.602-2.643l-0.37-2.492L77.8,16.754c-0.094-0.616-0.623-1.071-1.245-1.071h-1.399H73.96L72.217,14.7  c-0.189-0.105-0.401-0.162-0.618-0.162h-0.635H70.2c-0.643,0-1.18,0.482-1.253,1.121c-0.022,0.203-0.134,1.234-0.134,1.663v0.261  c-0.188-0.435-0.617-0.742-1.121-0.756L40.29,16.072l-2.038-1.065l-0.081-1.079c-0.02-0.33-0.174-0.638-0.426-0.857l-1.014-0.888  C36.5,11.982,36.208,11.871,35.903,11.871L35.903,11.871z"/>
</svg>
